<svg width="600" height="600" viewBox="0 0 600 600" fill="none" xmlns="http://www.w3.org/2000/svg">
<path d="M258.715 25.7217C258.715 66.763 225.445 100.034 184.403 100.034C156.056 100.034 131.416 84.1614 118.886 60.8193C96.5885 77.7294 76.7288 97.6858 59.9262 120.069C83.2298 132.611 99.0701 157.23 99.0701 185.549C99.0701 226.59 65.7995 259.86 24.7582 259.86C17.227 259.86 9.95745 258.74 3.10715 256.657C1.05913 270.809 -0.000976562 285.281 -0.000976562 300.001C-0.000976563 314.476 1.02423 328.712 3.00599 342.64C9.88587 340.537 17.1899 339.406 24.7582 339.406C65.7995 339.406 99.0701 372.676 99.0701 413.718C99.0701 426.205 95.9899 437.973 90.5479 448.304L191.962 346.89L192.92 347.848C186.381 333.238 182.745 317.044 182.745 300.001C182.745 235.244 235.242 182.748 299.999 182.748C318.511 182.748 336.021 187.038 351.59 194.678L258.729 287.539L312.908 341.718L405.615 249.011C413.072 264.428 417.252 281.727 417.252 300.001C417.252 364.759 364.756 417.255 299.999 417.255C282.797 417.255 266.461 413.551 251.744 406.897L148.944 509.696C159.483 503.963 171.564 500.706 184.405 500.706C225.447 500.706 258.717 533.976 258.717 575.017C258.717 582.569 257.591 589.857 255.497 596.723C270.018 598.882 284.878 600.001 299.999 600.001C314.041 600.001 327.857 599.036 341.386 597.169C339.204 590.173 338.028 582.732 338.028 575.017C338.028 533.976 371.298 500.706 412.34 500.706C441.179 500.706 466.181 517.134 478.499 541.142C502.035 523.692 522.927 502.877 540.464 479.41C516.943 466.934 500.923 442.197 500.923 413.718C500.923 372.676 534.193 339.406 575.235 339.406C582.805 339.406 590.11 340.538 596.992 342.641C598.974 328.713 599.999 314.477 599.999 300.001C599.999 285.281 598.939 270.808 596.891 256.656C590.039 258.74 582.768 259.86 575.235 259.86C534.193 259.86 500.923 226.59 500.923 185.549C500.923 157.228 516.765 132.608 540.07 120.067C522.682 96.9042 502.02 76.3402 478.771 59.0616C466.552 83.361 441.393 100.034 412.34 100.034C371.298 100.034 338.028 66.763 338.028 25.7217C338.028 17.7465 339.284 10.0647 341.61 2.86346C328.01 0.976374 314.118 0.000976563 299.999 0.000976562C284.801 0.000976562 269.867 1.13108 255.277 3.31185C257.511 10.3833 258.715 17.9118 258.715 25.7217Z" fill="#03A476"/>
<path d="M258.696 287.526L312.874 341.705L262.561 343.221C258.585 343.341 255.368 340.014 255.619 336.044L258.696 287.526Z" fill="#03A476"/>
</svg>
